<?xml version="1.0" encoding="utf-8"?>
<svg version="1.1" xmlns:xlink="http://www.w3.org/1999/xlink" width="13px" height="13px" viewBox="705 80  13 13" xmlns="http://www.w3.org/2000/svg">
  <path d="M 705.5 84  A 3.5 3.5 0 0 1 709 80.5 L 714 80.5  A 3.5 3.5 0 0 1 717.5 84 L 717.5 89  A 3.5 3.5 0 0 1 714 92.5 L 709 92.5  A 3.5 3.5 0 0 1 705.5 89 L 705.5 84  Z " fill-rule="nonzero" fill="#f0f0f0" stroke="none" />
  <path d="M 705.5 84  A 3.5 3.5 0 0 1 709 80.5 L 714 80.5  A 3.5 3.5 0 0 1 717.5 84 L 717.5 89  A 3.5 3.5 0 0 1 714 92.5 L 709 92.5  A 3.5 3.5 0 0 1 705.5 89 L 705.5 84  Z " stroke-width="1" stroke="#797979" fill="none" />
  <path d="M 707.7857142857143 86.5  L 710.5714285714286 89.28571428571428  L 715.2142857142857 82.78571428571429  " stroke-width="2.7857142857142856" stroke="#797979" fill="none" />
</svg>