<?xml version="1.0" encoding="utf-8"?>
<svg version="1.1" xmlns:xlink="http://www.w3.org/1999/xlink" width="238px" height="188px" xmlns="http://www.w3.org/2000/svg">
  <g transform="matrix(1 0 0 1 -44 -645 )">
    <path d="M 44 645  L 282 645  L 282 833  L 44 833  L 44 645  " fill-rule="nonzero" fill="#cccccc" stroke="none" />
    <path d="M 57 658  L 269 658  L 269 820  L 57 820  L 57 658  " fill-rule="nonzero" fill="#ffffff" stroke="none" />
    <path d="M 181.85999999999999 701.4000000000001  C 173.964 701.4000000000001  167.76 695.196  167.76 687.3000000000001  C 167.76 679.4040000000001  173.964 673.2  181.85999999999999 673.2  C 189.75599999999997 673.2  195.95999999999998 679.4040000000001  195.95999999999998 687.3000000000001  C 195.95999999999998 695.196  189.75599999999997 701.4000000000001  181.85999999999999 701.4000000000001  " fill-rule="nonzero" fill="#cccccc" stroke="none" />
    <path d="M 62 816  L 62 731.85  L 112.75 693.6  L 183.8 743.4857142857143  L 224.4 716.55  L 265 743.4857142857143  L 265 816  L 62 816  " fill-rule="nonzero" fill="#169bd5" stroke="none" />
  </g>
</svg>