<?xml version="1.0" encoding="utf-8"?>
<svg version="1.1" xmlns:xlink="http://www.w3.org/1999/xlink" width="13px" height="13px" viewBox="716 39  13 13" xmlns="http://www.w3.org/2000/svg">
  <path d="M 716.5 43  A 3.5 3.5 0 0 1 720 39.5 L 725 39.5  A 3.5 3.5 0 0 1 728.5 43 L 728.5 48  A 3.5 3.5 0 0 1 725 51.5 L 720 51.5  A 3.5 3.5 0 0 1 716.5 48 L 716.5 43  Z " fill-rule="nonzero" fill="#ffffff" stroke="none" />
  <path d="M 716.5 43  A 3.5 3.5 0 0 1 720 39.5 L 725 39.5  A 3.5 3.5 0 0 1 728.5 43 L 728.5 48  A 3.5 3.5 0 0 1 725 51.5 L 720 51.5  A 3.5 3.5 0 0 1 716.5 48 L 716.5 43  Z " stroke-width="1" stroke="#797979" fill="none" />
</svg>