<?xml version="1.0" encoding="utf-8"?>
<svg version="1.1" xmlns:xlink="http://www.w3.org/1999/xlink" width="13px" height="13px" viewBox="716 74  13 13" xmlns="http://www.w3.org/2000/svg">
  <path d="M 716.5 78  A 3.5 3.5 0 0 1 720 74.5 L 725 74.5  A 3.5 3.5 0 0 1 728.5 78 L 728.5 83  A 3.5 3.5 0 0 1 725 86.5 L 720 86.5  A 3.5 3.5 0 0 1 716.5 83 L 716.5 78  Z " fill-rule="nonzero" fill="#ffffff" stroke="none" />
  <path d="M 716.5 78  A 3.5 3.5 0 0 1 720 74.5 L 725 74.5  A 3.5 3.5 0 0 1 728.5 78 L 728.5 83  A 3.5 3.5 0 0 1 725 86.5 L 720 86.5  A 3.5 3.5 0 0 1 716.5 83 L 716.5 78  Z " stroke-width="1" stroke="#797979" fill="none" />
  <path d="M 718.7857142857143 80.5  L 721.5714285714286 83.28571428571428  L 726.2142857142857 76.78571428571429  " stroke-width="2.7857142857142856" stroke="#797979" fill="none" />
</svg>