<?xml version="1.0" encoding="utf-8"?>
<svg version="1.1" xmlns:xlink="http://www.w3.org/1999/xlink" width="13px" height="13px" viewBox="716 142  13 13" xmlns="http://www.w3.org/2000/svg">
  <path d="M 716.5 146  A 3.5 3.5 0 0 1 720 142.5 L 725 142.5  A 3.5 3.5 0 0 1 728.5 146 L 728.5 151  A 3.5 3.5 0 0 1 725 154.5 L 720 154.5  A 3.5 3.5 0 0 1 716.5 151 L 716.5 146  Z " fill-rule="nonzero" fill="#ffffff" stroke="none" />
  <path d="M 716.5 146  A 3.5 3.5 0 0 1 720 142.5 L 725 142.5  A 3.5 3.5 0 0 1 728.5 146 L 728.5 151  A 3.5 3.5 0 0 1 725 154.5 L 720 154.5  A 3.5 3.5 0 0 1 716.5 151 L 716.5 146  Z " stroke-width="1" stroke="#797979" fill="none" />
  <path d="M 718.7857142857143 148.5  L 721.5714285714286 151.2857142857143  L 726.2142857142857 144.78571428571428  " stroke-width="2.7857142857142856" stroke="#797979" fill="none" />
</svg>