<?xml version="1.0" encoding="utf-8"?>
<svg version="1.1" xmlns:xlink="http://www.w3.org/1999/xlink" width="13px" height="13px" viewBox="716 177  13 13" xmlns="http://www.w3.org/2000/svg">
  <path d="M 716.5 181  A 3.5 3.5 0 0 1 720 177.5 L 725 177.5  A 3.5 3.5 0 0 1 728.5 181 L 728.5 186  A 3.5 3.5 0 0 1 725 189.5 L 720 189.5  A 3.5 3.5 0 0 1 716.5 186 L 716.5 181  Z " fill-rule="nonzero" fill="#ffffff" stroke="none" />
  <path d="M 716.5 181  A 3.5 3.5 0 0 1 720 177.5 L 725 177.5  A 3.5 3.5 0 0 1 728.5 181 L 728.5 186  A 3.5 3.5 0 0 1 725 189.5 L 720 189.5  A 3.5 3.5 0 0 1 716.5 186 L 716.5 181  Z " stroke-width="1" stroke="#797979" fill="none" />
</svg>