<?xml version="1.0" encoding="utf-8"?>
<svg version="1.1" xmlns:xlink="http://www.w3.org/1999/xlink" width="13px" height="13px" viewBox="742 142  13 13" xmlns="http://www.w3.org/2000/svg">
  <path d="M 742.5 146  A 3.5 3.5 0 0 1 746 142.5 L 751 142.5  A 3.5 3.5 0 0 1 754.5 146 L 754.5 151  A 3.5 3.5 0 0 1 751 154.5 L 746 154.5  A 3.5 3.5 0 0 1 742.5 151 L 742.5 146  Z " fill-rule="nonzero" fill="#ffffff" stroke="none" />
  <path d="M 742.5 146  A 3.5 3.5 0 0 1 746 142.5 L 751 142.5  A 3.5 3.5 0 0 1 754.5 146 L 754.5 151  A 3.5 3.5 0 0 1 751 154.5 L 746 154.5  A 3.5 3.5 0 0 1 742.5 151 L 742.5 146  Z " stroke-width="1" stroke="#797979" fill="none" />
  <path d="M 744.7857142857143 148.5  L 747.5714285714286 151.2857142857143  L 752.2142857142857 144.78571428571428  " stroke-width="2.7857142857142856" stroke="#797979" fill="none" />
</svg>