<?xml version="1.0" encoding="utf-8"?>
<svg version="1.1" xmlns:xlink="http://www.w3.org/1999/xlink" width="13px" height="13px" viewBox="705 45  13 13" xmlns="http://www.w3.org/2000/svg">
  <path d="M 705.5 49  A 3.5 3.5 0 0 1 709 45.5 L 714 45.5  A 3.5 3.5 0 0 1 717.5 49 L 717.5 54  A 3.5 3.5 0 0 1 714 57.5 L 709 57.5  A 3.5 3.5 0 0 1 705.5 54 L 705.5 49  Z " fill-rule="nonzero" fill="#f0f0f0" stroke="none" />
  <path d="M 705.5 49  A 3.5 3.5 0 0 1 709 45.5 L 714 45.5  A 3.5 3.5 0 0 1 717.5 49 L 717.5 54  A 3.5 3.5 0 0 1 714 57.5 L 709 57.5  A 3.5 3.5 0 0 1 705.5 54 L 705.5 49  Z " stroke-width="1" stroke="#797979" fill="none" />
  <path d="M 707.7857142857143 51.5  L 710.5714285714286 54.285714285714285  L 715.2142857142857 47.785714285714285  " stroke-width="2.7857142857142856" stroke="#797979" fill="none" />
</svg>