<?xml version="1.0" encoding="utf-8"?>
<svg version="1.1" xmlns:xlink="http://www.w3.org/1999/xlink" width="13px" height="13px" viewBox="705 148  13 13" xmlns="http://www.w3.org/2000/svg">
  <path d="M 705.5 152  A 3.5 3.5 0 0 1 709 148.5 L 714 148.5  A 3.5 3.5 0 0 1 717.5 152 L 717.5 157  A 3.5 3.5 0 0 1 714 160.5 L 709 160.5  A 3.5 3.5 0 0 1 705.5 157 L 705.5 152  Z " fill-rule="nonzero" fill="#f0f0f0" stroke="none" />
  <path d="M 705.5 152  A 3.5 3.5 0 0 1 709 148.5 L 714 148.5  A 3.5 3.5 0 0 1 717.5 152 L 717.5 157  A 3.5 3.5 0 0 1 714 160.5 L 709 160.5  A 3.5 3.5 0 0 1 705.5 157 L 705.5 152  Z " stroke-width="1" stroke="#797979" fill="none" />
</svg>