<?xml version="1.0" encoding="utf-8"?>
<svg version="1.1" xmlns:xlink="http://www.w3.org/1999/xlink" width="23px" height="22px" xmlns="http://www.w3.org/2000/svg">
  <g transform="matrix(1 0 0 1 -693 -317 )">
    <path d="M 16.26171875 13.75  C 16.26171875 13.874131944444441  16.218936011904763 13.983940972222223  16.13337053571429 14.079427083333332  L 14.259486607142858 16.170572916666668  C 14.173921130952383 16.26605902777778  14.075520833333336 16.313802083333332  13.964285714285714 16.313802083333332  C 13.853050595238097 16.313802083333332  13.754650297619047 16.26605902777778  13.669084821428571 16.170572916666668  L 11.5 13.75  L 9.330915178571429 16.170572916666668  C 9.245349702380953 16.26605902777778  9.146949404761907 16.313802083333332  9.035714285714285 16.313802083333332  C 8.924479166666668 16.313802083333332  8.82607886904762 16.26605902777778  8.740513392857144 16.170572916666668  L 6.866629464285714 14.079427083333332  C 6.781063988095239 13.983940972222223  6.73828125 13.874131944444441  6.73828125 13.75  C 6.73828125 13.625868055555554  6.781063988095239 13.516059027777777  6.866629464285714 13.420572916666668  L 9.035714285714285 11  L 6.866629464285714 8.579427083333334  C 6.781063988095239 8.48394097222222  6.73828125 8.374131944444443  6.73828125 8.25  C 6.73828125 8.125868055555554  6.781063988095239 8.016059027777777  6.866629464285714 7.920572916666666  L 8.740513392857144 5.829427083333334  C 8.82607886904762 5.7339409722222205  8.924479166666668 5.686197916666666  9.035714285714285 5.686197916666666  C 9.146949404761907 5.686197916666666  9.245349702380953 5.7339409722222205  9.330915178571429 5.829427083333334  L 11.5 8.25  L 13.669084821428571 5.829427083333334  C 13.754650297619047 5.7339409722222205  13.853050595238097 5.686197916666666  13.964285714285714 5.686197916666666  C 14.075520833333336 5.686197916666666  14.173921130952383 5.7339409722222205  14.259486607142858 5.829427083333334  L 16.13337053571429 7.920572916666666  C 16.218936011904763 8.016059027777777  16.26171875 8.125868055555554  16.26171875 8.25  C 16.26171875 8.374131944444443  16.218936011904763 8.48394097222222  16.13337053571429 8.579427083333334  L 13.964285714285714 11  L 16.13337053571429 13.420572916666668  C 16.218936011904763 13.516059027777777  16.26171875 13.625868055555554  16.26171875 13.75  Z M 3.2857142857142856 4  L 3.2857142857142856 18  L 19.71428571428571 18  L 19.71428571428571 4  L 3.2857142857142856 4  Z M 22.396763392857142 0.6731770833333341  C 22.798921130952383 1.1219618055555545  23 1.6614583333333341  23 2.291666666666666  L 23 19.708333333333336  C 23 20.338541666666664  22.798921130952383 20.878038194444446  22.396763392857142 21.326822916666664  C 21.99460565476191 21.77560763888889  21.51116071428572 22  20.94642857142857 22  L 2.053571428571429 22  C 1.4888392857142858 22  1.0053943452380953 21.77560763888889  0.6032366071428572 21.326822916666664  C 0.20107886904761904 20.878038194444446  0 20.338541666666664  0 19.708333333333336  L 0 2.291666666666666  C 0 1.6614583333333341  0.20107886904761904 1.1219618055555545  0.6032366071428572 0.6731770833333341  C 1.0053943452380953 0.22439236111110894  1.4888392857142858 0  2.053571428571429 0  L 20.94642857142857 0  C 21.51116071428572 0  21.99460565476191 0.22439236111110894  22.396763392857142 0.6731770833333341  Z " fill-rule="nonzero" fill="#000000" stroke="none" transform="matrix(1 0 0 1 693 317 )" />
  </g>
</svg>