<?xml version="1.0" encoding="utf-8"?>
<svg version="1.1" xmlns:xlink="http://www.w3.org/1999/xlink" width="13px" height="13px" viewBox="705 114  13 13" xmlns="http://www.w3.org/2000/svg">
  <path d="M 705.5 118  A 3.5 3.5 0 0 1 709 114.5 L 714 114.5  A 3.5 3.5 0 0 1 717.5 118 L 717.5 123  A 3.5 3.5 0 0 1 714 126.5 L 709 126.5  A 3.5 3.5 0 0 1 705.5 123 L 705.5 118  Z " fill-rule="nonzero" fill="#ffffff" stroke="none" />
  <path d="M 705.5 118  A 3.5 3.5 0 0 1 709 114.5 L 714 114.5  A 3.5 3.5 0 0 1 717.5 118 L 717.5 123  A 3.5 3.5 0 0 1 714 126.5 L 709 126.5  A 3.5 3.5 0 0 1 705.5 123 L 705.5 118  Z " stroke-width="1" stroke="#797979" fill="none" />
</svg>