<?xml version="1.0" encoding="utf-8"?>
<svg version="1.1" xmlns:xlink="http://www.w3.org/1999/xlink" width="13px" height="13px" viewBox="705 183  13 13" xmlns="http://www.w3.org/2000/svg">
  <path d="M 705.5 187  A 3.5 3.5 0 0 1 709 183.5 L 714 183.5  A 3.5 3.5 0 0 1 717.5 187 L 717.5 192  A 3.5 3.5 0 0 1 714 195.5 L 709 195.5  A 3.5 3.5 0 0 1 705.5 192 L 705.5 187  Z " fill-rule="nonzero" fill="#ffffff" stroke="none" />
  <path d="M 705.5 187  A 3.5 3.5 0 0 1 709 183.5 L 714 183.5  A 3.5 3.5 0 0 1 717.5 187 L 717.5 192  A 3.5 3.5 0 0 1 714 195.5 L 709 195.5  A 3.5 3.5 0 0 1 705.5 192 L 705.5 187  Z " stroke-width="1" stroke="#797979" fill="none" />
  <path d="M 707.7857142857143 189.5  L 710.5714285714286 192.2857142857143  L 715.2142857142857 185.78571428571428  " stroke-width="2.7857142857142856" stroke="#797979" fill="none" />
</svg>