<?xml version="1.0" encoding="utf-8"?>
<svg version="1.1" xmlns:xlink="http://www.w3.org/1999/xlink" width="137px" height="148px" xmlns="http://www.w3.org/2000/svg">
  <g transform="matrix(1 0 0 1 -206 -164 )">
    <path d="M 206 164  L 343 164  L 343 312  L 206 312  L 206 164  " fill-rule="nonzero" fill="#cccccc" stroke="none" />
    <path d="M 216 174  L 333 174  L 333 302  L 216 302  L 216 174  " fill-rule="nonzero" fill="#ffffff" stroke="none" />
    <path d="M 287.515 206.75  C 281.761 206.75  277.24 202.22899999999998  277.24 196.475  C 277.24 190.721  281.761 186.2  287.515 186.2  C 293.269 186.2  297.79 190.721  297.79 196.475  C 297.79 202.22899999999998  293.269 206.75  287.515 206.75  " fill-rule="nonzero" fill="#cccccc" stroke="none" />
    <path d="M 220 299  L 220 232.45  L 247.5 202.2  L 286 226.4  L 308 220.35  L 330 226.4  L 330 299  L 220 299  " fill-rule="nonzero" fill="#169bd5" stroke="none" />
  </g>
</svg>