<?xml version="1.0" encoding="utf-8"?>
<svg version="1.1" xmlns:xlink="http://www.w3.org/1999/xlink" width="65px" height="60px" xmlns="http://www.w3.org/2000/svg">
  <g transform="matrix(1 0 0 1 -572 -56 )">
    <path d="M 572 56  L 637 56  L 637 116  L 572 116  L 572 56  " fill-rule="nonzero" fill="#cccccc" stroke="none" />
    <path d="M 576 60  L 633 60  L 633 112  L 576 112  L 576 60  " fill-rule="nonzero" fill="#ffffff" stroke="none" />
    <path d="M 610.3 74  C 607.78 74  605.8 72.02  605.8 69.5  C 605.8 66.98  607.78 65  610.3 65  C 612.8199999999999 65  614.8 66.98  614.8 69.5  C 614.8 72.02  612.8199999999999 74  610.3 74  " fill-rule="nonzero" fill="#cccccc" stroke="none" />
    <path d="M 578 111  L 578 84.05  L 591.5 71.8  L 610.4 83.86153846153846  L 621.2 79.15  L 632 83.86153846153846  L 632 111  L 578 111  " fill-rule="nonzero" fill="#169bd5" stroke="none" />
  </g>
</svg>