<?xml version="1.0" encoding="utf-8"?>
<svg version="1.1" xmlns:xlink="http://www.w3.org/1999/xlink" width="99px" height="115px" xmlns="http://www.w3.org/2000/svg">
  <g transform="matrix(1 0 0 1 -83 -1399 )">
    <path d="M 83 1399  L 182 1399  L 182 1514  L 83 1514  L 83 1399  " fill-rule="nonzero" fill="#cccccc" stroke="none" />
    <path d="M 90 1406  L 175 1406  L 175 1507  L 90 1507  L 90 1406  " fill-rule="nonzero" fill="#ffffff" stroke="none" />
    <path d="M 141.90500000000003 1431.1  C 137.747 1431.1  134.48000000000002 1427.8329999999999  134.48000000000002 1423.675  C 134.48000000000002 1419.517  137.747 1416.25  141.90500000000003 1416.25  C 146.06300000000002 1416.25  149.33 1419.517  149.33 1423.675  C 149.33 1427.8329999999999  146.06300000000002 1431.1  141.90500000000003 1431.1  " fill-rule="nonzero" fill="#cccccc" stroke="none" />
    <path d="M 93 1505  L 93 1452.2  L 113 1428.2  L 141 1447.4  L 157 1442.6  L 173 1447.4  L 173 1505  L 93 1505  " fill-rule="nonzero" fill="#169bd5" stroke="none" />
  </g>
</svg>