<?xml version="1.0" encoding="utf-8"?>
<svg version="1.1" xmlns:xlink="http://www.w3.org/1999/xlink" width="172px" height="203px" xmlns="http://www.w3.org/2000/svg">
  <g transform="matrix(1 0 0 1 -7 -101 )">
    <path d="M 7 101  L 179 101  L 179 304  L 7 304  L 7 101  " fill-rule="nonzero" fill="#cccccc" stroke="none" />
    <path d="M 19 113  L 167 113  L 167 292  L 19 292  L 19 113  " fill-rule="nonzero" fill="#ffffff" stroke="none" />
    <path d="M 109.34 157.25  C 102.116 157.25  96.44 151.574  96.44 144.35  C 96.44 137.12599999999998  102.116 131.45  109.34 131.45  C 116.564 131.45  122.24 137.12599999999998  122.24 144.35  C 122.24 151.574  116.564 157.25  109.34 157.25  " fill-rule="nonzero" fill="#cccccc" stroke="none" />
    <path d="M 24 288  L 24 194.5  L 58.75 152  L 107.39999999999999 186  L 135.2 177.5  L 163 186  L 163 288  L 24 288  " fill-rule="nonzero" fill="#169bd5" stroke="none" />
  </g>
</svg>