<?xml version="1.0" encoding="utf-8"?>
<svg version="1.1" xmlns:xlink="http://www.w3.org/1999/xlink" width="13px" height="13px" viewBox="1134 198  13 13" xmlns="http://www.w3.org/2000/svg">
  <path d="M 1134.5 202  A 3.5 3.5 0 0 1 1138 198.5 L 1143 198.5  A 3.5 3.5 0 0 1 1146.5 202 L 1146.5 207  A 3.5 3.5 0 0 1 1143 210.5 L 1138 210.5  A 3.5 3.5 0 0 1 1134.5 207 L 1134.5 202  Z " fill-rule="nonzero" fill="#f0f0f0" stroke="none" />
  <path d="M 1134.5 202  A 3.5 3.5 0 0 1 1138 198.5 L 1143 198.5  A 3.5 3.5 0 0 1 1146.5 202 L 1146.5 207  A 3.5 3.5 0 0 1 1143 210.5 L 1138 210.5  A 3.5 3.5 0 0 1 1134.5 207 L 1134.5 202  Z " stroke-width="1" stroke="#797979" fill="none" />
</svg>