<?xml version="1.0" encoding="utf-8"?>
<svg version="1.1" xmlns:xlink="http://www.w3.org/1999/xlink" width="13px" height="13px" viewBox="1134 339  13 13" xmlns="http://www.w3.org/2000/svg">
  <path d="M 1134.5 343  A 3.5 3.5 0 0 1 1138 339.5 L 1143 339.5  A 3.5 3.5 0 0 1 1146.5 343 L 1146.5 348  A 3.5 3.5 0 0 1 1143 351.5 L 1138 351.5  A 3.5 3.5 0 0 1 1134.5 348 L 1134.5 343  Z " fill-rule="nonzero" fill="#f0f0f0" stroke="none" />
  <path d="M 1134.5 343  A 3.5 3.5 0 0 1 1138 339.5 L 1143 339.5  A 3.5 3.5 0 0 1 1146.5 343 L 1146.5 348  A 3.5 3.5 0 0 1 1143 351.5 L 1138 351.5  A 3.5 3.5 0 0 1 1134.5 348 L 1134.5 343  Z " stroke-width="1" stroke="#797979" fill="none" />
</svg>