<?xml version="1.0" encoding="utf-8"?>
<svg version="1.1" xmlns:xlink="http://www.w3.org/1999/xlink" width="29px" height="20px" xmlns="http://www.w3.org/2000/svg">
  <g transform="matrix(1 0 0 1 -1165 -658 )">
    <path d="M 28.4619140625 0.6597222222222232  C 28.820638020833336 1.0995370370370328  29 1.6203703703703654  29 2.222222222222223  C 29 2.824074074074072  28.820638020833336 3.3449074074074048  28.4619140625 3.784722222222223  L 15.7744140625 19.34027777777778  C 15.415690104166668 19.780092592592588  14.990885416666668 20  14.5 20  C 14.009114583333336 20  13.584309895833336 19.780092592592588  13.2255859375 19.34027777777778  L 0.5380859375 3.784722222222223  C 0.17936197916666666 3.3449074074074048  0 2.824074074074072  0 2.222222222222223  C 0 1.6203703703703654  0.17936197916666666 1.0995370370370328  0.5380859375 0.6597222222222232  C 0.8968098958333334 0.21990740740740478  1.3216145833333335 0  1.8125 0  L 27.1875 0  C 27.678385416666668 0  28.103190104166668 0.21990740740740478  28.4619140625 0.6597222222222232  Z " fill-rule="nonzero" fill="#000000" stroke="none" transform="matrix(1 0 0 1 1165 658 )" />
  </g>
</svg>