<?xml version="1.0" encoding="utf-8"?>
<svg version="1.1" xmlns:xlink="http://www.w3.org/1999/xlink" width="29px" height="20px" xmlns="http://www.w3.org/2000/svg">
  <g transform="matrix(1 0 0 1 -1140 -658 )">
    <path d="M 28.4619140625 16.21527777777778  C 28.820638020833336 16.655092592592588  29 17.17592592592592  29 17.77777777777778  C 29 18.379629629629626  28.820638020833336 18.900462962962962  28.4619140625 19.34027777777778  C 28.103190104166668 19.780092592592588  27.678385416666668 20  27.1875 20  L 1.8125 20  C 1.3216145833333335 20  0.8968098958333334 19.780092592592588  0.5380859375 19.34027777777778  C 0.17936197916666666 18.900462962962962  0 18.379629629629626  0 17.77777777777778  C 0 17.17592592592592  0.17936197916666666 16.655092592592588  0.5380859375 16.21527777777778  L 13.2255859375 0.6597222222222232  C 13.584309895833336 0.21990740740740478  14.009114583333336 0  14.5 0  C 14.990885416666668 0  15.415690104166668 0.21990740740740478  15.7744140625 0.6597222222222232  L 28.4619140625 16.21527777777778  Z " fill-rule="nonzero" fill="#000000" stroke="none" transform="matrix(1 0 0 1 1140 658 )" />
  </g>
</svg>