<?xml version="1.0" encoding="utf-8"?>
<svg version="1.1" xmlns:xlink="http://www.w3.org/1999/xlink" width="60px" height="60px" xmlns="http://www.w3.org/2000/svg">
  <g transform="matrix(1 0 0 1 -686 -345 )">
    <path d="M 686 345  L 746 345  L 746 405  L 686 405  L 686 345  " fill-rule="nonzero" fill="#cccccc" stroke="none" />
    <path d="M 690 349  L 742 349  L 742 401  L 690 401  L 690 349  " fill-rule="nonzero" fill="#ffffff" stroke="none" />
    <path d="M 721.7 363  C 719.1800000000001 363  717.2 361.02  717.2 358.5  C 717.2 355.98  719.1800000000001 354  721.7 354  C 724.22 354  726.2 355.98  726.2 358.5  C 726.2 361.02  724.22 363  721.7 363  " fill-rule="nonzero" fill="#cccccc" stroke="none" />
    <path d="M 692 400  L 692 373.05  L 704.25 360.8  L 721.4 370.6  L 731.2 368.15  L 741 370.6  L 741 400  L 692 400  " fill-rule="nonzero" fill="#169bd5" stroke="none" />
  </g>
</svg>