<?xml version="1.0" encoding="utf-8"?>
<svg version="1.1" xmlns:xlink="http://www.w3.org/1999/xlink" width="176px" height="193px" xmlns="http://www.w3.org/2000/svg">
  <g transform="matrix(1 0 0 1 -7 -198 )">
    <path d="M 7 198  L 183 198  L 183 391  L 7 391  L 7 198  " fill-rule="nonzero" fill="#cccccc" stroke="none" />
    <path d="M 19 210  L 171 210  L 171 379  L 19 379  L 19 210  " fill-rule="nonzero" fill="#ffffff" stroke="none" />
    <path d="M 111.72000000000001 253.35  C 104.32800000000002 253.35  98.52000000000001 247.54199999999997  98.52000000000001 240.14999999999998  C 98.52000000000001 232.75799999999998  104.32800000000002 226.95  111.72000000000001 226.95  C 119.11200000000001 226.95  124.92000000000002 232.75799999999998  124.92000000000002 240.14999999999998  C 124.92000000000002 247.54199999999997  119.11200000000001 253.35  111.72000000000001 253.35  " fill-rule="nonzero" fill="#cccccc" stroke="none" />
    <path d="M 24 375  L 24 287  L 59.75 247  L 109.8 279  L 138.4 271  L 167 279  L 167 375  L 24 375  " fill-rule="nonzero" fill="#169bd5" stroke="none" />
  </g>
</svg>