<?xml version="1.0" encoding="utf-8"?>
<svg version="1.1" xmlns:xlink="http://www.w3.org/1999/xlink" width="13px" height="13px" viewBox="716 108  13 13" xmlns="http://www.w3.org/2000/svg">
  <path d="M 716.5 112  A 3.5 3.5 0 0 1 720 108.5 L 725 108.5  A 3.5 3.5 0 0 1 728.5 112 L 728.5 117  A 3.5 3.5 0 0 1 725 120.5 L 720 120.5  A 3.5 3.5 0 0 1 716.5 117 L 716.5 112  Z " fill-rule="nonzero" fill="#f0f0f0" stroke="none" />
  <path d="M 716.5 112  A 3.5 3.5 0 0 1 720 108.5 L 725 108.5  A 3.5 3.5 0 0 1 728.5 112 L 728.5 117  A 3.5 3.5 0 0 1 725 120.5 L 720 120.5  A 3.5 3.5 0 0 1 716.5 117 L 716.5 112  Z " stroke-width="1" stroke="#797979" fill="none" />
  <path d="M 718.7857142857143 114.5  L 721.5714285714286 117.28571428571428  L 726.2142857142857 110.78571428571429  " stroke-width="2.7857142857142856" stroke="#797979" fill="none" />
</svg>