<?xml version="1.0" encoding="utf-8"?>
<svg version="1.1" xmlns:xlink="http://www.w3.org/1999/xlink" width="13px" height="13px" viewBox="742 39  13 13" xmlns="http://www.w3.org/2000/svg">
  <path d="M 742.5 43  A 3.5 3.5 0 0 1 746 39.5 L 751 39.5  A 3.5 3.5 0 0 1 754.5 43 L 754.5 48  A 3.5 3.5 0 0 1 751 51.5 L 746 51.5  A 3.5 3.5 0 0 1 742.5 48 L 742.5 43  Z " fill-rule="nonzero" fill="#f0f0f0" stroke="none" />
  <path d="M 742.5 43  A 3.5 3.5 0 0 1 746 39.5 L 751 39.5  A 3.5 3.5 0 0 1 754.5 43 L 754.5 48  A 3.5 3.5 0 0 1 751 51.5 L 746 51.5  A 3.5 3.5 0 0 1 742.5 48 L 742.5 43  Z " stroke-width="1" stroke="#797979" fill="none" />
  <path d="M 744.7857142857143 45.5  L 747.5714285714286 48.285714285714285  L 752.2142857142857 41.785714285714285  " stroke-width="2.7857142857142856" stroke="#797979" fill="none" />
</svg>