<?xml version="1.0" encoding="utf-8"?>
<svg version="1.1" xmlns:xlink="http://www.w3.org/1999/xlink" width="13px" height="13px" viewBox="1134 268  13 13" xmlns="http://www.w3.org/2000/svg">
  <path d="M 1134.5 272  A 3.5 3.5 0 0 1 1138 268.5 L 1143 268.5  A 3.5 3.5 0 0 1 1146.5 272 L 1146.5 277  A 3.5 3.5 0 0 1 1143 280.5 L 1138 280.5  A 3.5 3.5 0 0 1 1134.5 277 L 1134.5 272  Z " fill-rule="nonzero" fill="#f0f0f0" stroke="none" />
  <path d="M 1134.5 272  A 3.5 3.5 0 0 1 1138 268.5 L 1143 268.5  A 3.5 3.5 0 0 1 1146.5 272 L 1146.5 277  A 3.5 3.5 0 0 1 1143 280.5 L 1138 280.5  A 3.5 3.5 0 0 1 1134.5 277 L 1134.5 272  Z " stroke-width="1" stroke="#797979" fill="none" />
  <path d="M 1136.7857142857142 274.5  L 1139.5714285714287 277.2857142857143  L 1144.2142857142858 270.7857142857143  " stroke-width="2.7857142857142856" stroke="#797979" fill="none" />
</svg>