<?xml version="1.0" encoding="utf-8"?>
<svg version="1.1" xmlns:xlink="http://www.w3.org/1999/xlink" width="13px" height="13px" viewBox="742 74  13 13" xmlns="http://www.w3.org/2000/svg">
  <path d="M 742.5 78  A 3.5 3.5 0 0 1 746 74.5 L 751 74.5  A 3.5 3.5 0 0 1 754.5 78 L 754.5 83  A 3.5 3.5 0 0 1 751 86.5 L 746 86.5  A 3.5 3.5 0 0 1 742.5 83 L 742.5 78  Z " fill-rule="nonzero" fill="#f0f0f0" stroke="none" />
  <path d="M 742.5 78  A 3.5 3.5 0 0 1 746 74.5 L 751 74.5  A 3.5 3.5 0 0 1 754.5 78 L 754.5 83  A 3.5 3.5 0 0 1 751 86.5 L 746 86.5  A 3.5 3.5 0 0 1 742.5 83 L 742.5 78  Z " stroke-width="1" stroke="#797979" fill="none" />
</svg>