<?xml version="1.0" encoding="utf-8"?>
<svg version="1.1" xmlns:xlink="http://www.w3.org/1999/xlink" width="13px" height="13px" viewBox="1134 303  13 13" xmlns="http://www.w3.org/2000/svg">
  <path d="M 1134.5 307  A 3.5 3.5 0 0 1 1138 303.5 L 1143 303.5  A 3.5 3.5 0 0 1 1146.5 307 L 1146.5 312  A 3.5 3.5 0 0 1 1143 315.5 L 1138 315.5  A 3.5 3.5 0 0 1 1134.5 312 L 1134.5 307  Z " fill-rule="nonzero" fill="#ffffff" stroke="none" />
  <path d="M 1134.5 307  A 3.5 3.5 0 0 1 1138 303.5 L 1143 303.5  A 3.5 3.5 0 0 1 1146.5 307 L 1146.5 312  A 3.5 3.5 0 0 1 1143 315.5 L 1138 315.5  A 3.5 3.5 0 0 1 1134.5 312 L 1134.5 307  Z " stroke-width="1" stroke="#797979" fill="none" />
</svg>